#!OML:ASF E:\emotionWalksFemale\Project 1\Capture day 1\Session 1\Female1.ASF
:FULLY-SPECIFIED
:DEGREES
2385
root 9.11419 15.2791 -5.46891 365.016 4.74561 -356.34
lowerback 6.27826 -0.489856 -2.95444
upperback -3.82222 -0.922598 0.231114
thorax -7.4905 -0.294702 2.01885
lowerneck -3.67859 8.20794 3.11842
upperneck 1.30767 10.7612 1.32062
head 1.09957 5.40983 0.125946
rclavicle -4.3686e-015 -1.94809e-014
rhumerus -43.7689 -13.4488 -68.2814
rradius 34.0388
rwrist 21.041
rhand -8.66438 -48.3907
rfingers 7.12502
rthumb 17.2695 282.357
lclavicle -4.3686e-015 -1.94809e-014
lhumerus -29.357 -13.3642 94.2841
lradius 47.7452
lwrist -1.87174
lhand -0.170392 -33.9872
lfingers 7.12502
lthumb 25.4272 -5.66308
rfemur -32.1697 21.368 13.1146
rtibia 23.1809
rfoot -18.7252 -32.681
rtoes 10.7436
lfemur 17.7343 -17.535 -33.796
ltibia -3.18055e-014
lfoot -12.0586 5.54018
ltoes -29.4859
2386
root 9.10125 15.2963 -5.35976 365.063 4.85134 -356.469
lowerback 6.08283 -0.508343 -2.89162
upperback -3.81288 -0.928718 0.319192
thorax -7.36587 -0.300749 2.07368
lowerneck -3.58729 8.17738 3.40931
upperneck 1.10543 10.7221 0.917139
head 1.06038 5.38333 -0.0492213
rclavicle -9.48265e-015 -3.18055e-015
rhumerus -43.986 -13.5585 -67.8759
rradius 34.1389
rwrist 20.6462
rhand -8.60218 -48.279
rfingers 7.12502
rthumb 17.3293 282.474
lclavicle -9.48265e-015 -3.18055e-015
lhumerus -29.194 -13.6913 94.3567
lradius 47.9161
lwrist -1.66822
lhand -0.0167916 -33.8036
lfingers 7.12502
lthumb 25.5743 -5.50055
rfemur -31.9457 21.6756 13.2898
rtibia 23.2262
rfoot -17.5537 -33.074
rtoes 10.4765
lfemur 18.0588 -17.3324 -33.5768
ltibia -6.36111e-015
lfoot -11.5849 5.1678
ltoes -27.9208
2387
root 9.08559 15.316 -5.25769 365.088 5.13945 -356.633
lowerback 6.04692 -0.589761 -2.81595
upperback -3.79602 -1.02083 0.445333
thorax -7.32047 -0.347237 2.17412
lowerneck -3.54717 8.22004 3.51188
upperneck 0.875044 10.7839 0.677379
head 1.00185 5.40847 -0.142875
rclavicle -6.33316e-015 7.95139e-015
rhumerus -44.1709 -13.5261 -67.5704
rradius 34.4767
rwrist 20.3374
rhand -7.79833 -48.9681
rfingers 7.12502
rthumb 18.1029 281.854
lclavicle -6.33316e-015 7.95139e-015
lhumerus -29.0108 -13.9563 94.4504
lradius 48.1139
lwrist -1.65217
lhand -2.81157 -36.1569
lfingers 7.12502
lthumb 22.8948 -7.49611
rfemur -31.6911 21.931 13.471
rtibia 23.2406
rfoot -16.9914 -33.33
rtoes 11.2642
lfemur 18.4127 -17.3089 -33.2832
ltibia -5.08889e-014
lfoot -11.02 4.73207
ltoes -26.0075
2388
root 9.07115 15.3311 -5.14977 365.115 5.4097 -356.852
lowerback 6.00648 -0.664129 -2.62609
upperback -3.8039 -1.09376 0.564479
thorax -7.30158 -0.38949 2.20073
lowerneck -3.71126 8.31328 3.32534
upperneck 0.892607 10.9062 0.839452
head 1.01585 5.47132 -0.0552595
rclavicle 1.2539e-014 7.95139e-016
rhumerus -44.3405 -13.5709 -67.2014
rradius 34.6849
rwrist 20.339
rhand -7.29661 -49.5425
rfingers 7.12502
rthumb 18.5855 281.325
lclavicle 1.2539e-014 7.95139e-016
lhumerus -28.9457 -14.0201 94.5287
lradius 48.2356
lwrist -1.74855
lhand -2.97596 -36.2357
lfingers 7.12502
lthumb 22.737 -7.55542
rfemur -31.3476 21.8224 13.8988
rtibia 23.2303
rfoot -16.3455 -33.2122
rtoes 11.1753
lfemur 18.7775 -17.2628 -32.9429
ltibia 2.54444e-014
lfoot -10.3983 4.41647
ltoes -26.1429
2389
root 9.05707 15.3471 -5.03987 365.217 5.67606 -356.946
lowerback 5.96978 -0.708222 -2.50414
upperback -3.88513 -1.1398 0.589389
thorax -7.36587 -0.415582 2.16426
lowerneck -4.15169 8.2329 3.4628
upperneck 1.32773 10.7656 0.880611
head 1.23323 5.40829 -0.0348809
rclavicle 5.79271e-015 -6.36111e-015
rhumerus -44.6258 -13.7688 -66.7798
rradius 34.6621
rwrist 20.3566
rhand -7.72571 -49.3861
rfingers 7.12502
rthumb 18.1727 281.443
lclavicle 5.79271e-015 -6.36111e-015
lhumerus -28.8857 -14.186 94.577
lradius 48.2116
lwrist -1.71093
lhand -0.699778 -34.5262
lfingers 7.12502
lthumb 24.9199 -6.1308
rfemur -31.0079 21.5359 14.2751
rtibia 23.2319
rfoot -15.4536 -33.0685
rtoes 10.716
lfemur 19.041 -17.2342 -32.7244
ltibia 1.90833e-014
lfoot -9.60942 4.17851
ltoes -28.3519
